<svg xmlns="http://www.w3.org/2000/svg" width="174.488" height="199.41" viewBox="0 0 174.488 199.41"><path fill="#FC6E51" d="M62.317 0h99.708c6.891 0 12.464 5.588 12.464 12.464v174.483c0 6.889-5.573 12.463-12.464 12.463h-149.562c-6.876 0-12.463-5.575-12.463-12.463v-124.629l62.317-62.318z"/><path fill="#434A54" d="M62.317 0v49.854c0 6.89-5.573 12.464-12.462 12.464h-49.855l62.317-62.318z"/><path fill="#fff" d="M40.214 92.673c3.226 0 6.013.377 8.387 1.132 2.362.754 4.321 1.814 5.854 3.164 1.545 1.364 2.689 2.996 3.443 4.906.755 1.911 1.133 4.017 1.133 6.322 0 2.354-.402 4.511-1.193 6.463-.803 1.954-1.996 3.633-3.565 5.038-1.583 1.405-3.543 2.501-5.879 3.293-2.35.785-5.063 1.181-8.18 1.181h-7.327v17.855h-8.021v-49.354h15.348zm0 25.158c1.79 0 3.36-.23 4.71-.688 1.364-.457 2.495-1.102 3.396-1.936.901-.834 1.583-1.845 2.045-3.037.451-1.181.682-2.507.682-3.974 0-1.442-.22-2.732-.669-3.87-.438-1.144-1.108-2.11-2.008-2.914-.889-.804-2.009-1.413-3.372-1.834-1.363-.419-2.957-.638-4.783-.638h-7.327v18.889l7.326.002zm69.828-.481c0 3.657-.597 6.999-1.789 10.023-1.181 3.03-2.861 5.629-5.016 7.802-2.166 2.167-4.758 3.853-7.789 5.051-3.031 1.205-6.39 1.802-10.089 1.802h-18.648v-49.355h18.647c3.7 0 7.059.596 10.089 1.801 3.031 1.192 5.624 2.884 7.79 5.05 2.154 2.172 3.834 4.771 5.015 7.803 1.193 3.025 1.79 6.365 1.79 10.023zm-8.191 0c0-2.83-.39-5.386-1.156-7.643-.768-2.258-1.863-4.17-3.287-5.728-1.437-1.552-3.165-2.744-5.197-3.579-2.033-.832-4.322-1.253-6.852-1.253h-10.588v36.404h10.589c2.531 0 4.819-.413 6.852-1.235 2.032-.822 3.76-2.014 5.197-3.584 1.424-1.563 2.52-3.469 3.287-5.72.765-2.251 1.155-4.807 1.155-7.662zm25.047-18.203v15.8h19.304v6.48h-19.304v20.601h-8.056v-49.355h30.781v6.475l-22.725-.001z"/><path opacity=".2" fill="#32383F" enable-background="new" d="M49.855 62.318l-49.855 49.848v-49.848h49.855z"/></svg>